<svg width="351" height="234" viewBox="0 0 351 234" fill="none" xmlns="http://www.w3.org/2000/svg">
<g clip-path="url(#clip0_279_1883)">
<path d="M309.213 112.053C299.962 116.655 287.684 110.738 287.684 110.738C287.684 110.738 290.413 97.362 299.668 92.7662C308.919 88.1642 321.192 94.0751 321.192 94.0751C321.192 94.0751 318.463 107.451 309.213 112.053Z" fill="#FAFAFA"/>
<path d="M176.055 219.228C232.353 219.228 277.991 173.459 277.991 117C277.991 60.541 232.353 14.772 176.055 14.772C119.757 14.772 74.1179 60.541 74.1179 117C74.1179 173.459 119.757 219.228 176.055 219.228Z" fill="#FAFAFA"/>
<path d="M260.445 202.845C258.876 202.845 257.604 201.569 257.604 199.996C257.604 198.422 258.876 197.146 260.445 197.146C262.014 197.146 263.286 198.422 263.286 199.996C263.286 201.569 262.014 202.845 260.445 202.845Z" fill="#2C5FFF"/>
<path d="M61.8477 174.525C59.5812 174.525 57.7438 172.683 57.7438 170.41C57.7438 168.137 59.5812 166.294 61.8477 166.294C64.1143 166.294 65.9517 168.137 65.9517 170.41C65.9517 172.683 64.1143 174.525 61.8477 174.525Z" fill="#2C5FFF"/>
<path d="M282.734 147.874C280.971 147.874 279.542 146.728 279.542 145.314C279.542 143.899 280.971 142.753 282.734 142.753C284.496 142.753 285.925 143.899 285.925 145.314C285.925 146.728 284.496 147.874 282.734 147.874Z" fill="#84B8FF"/>
<path d="M306.934 127.632H307.017C307.511 134.656 312.721 134.764 312.721 134.764C312.721 134.764 306.977 134.876 306.977 142.993C306.977 134.876 301.232 134.764 301.232 134.764C301.232 134.764 306.439 134.656 306.934 127.632ZM97.1175 195.92H97.1914C97.6301 202.277 102.252 202.375 102.252 202.375C102.252 202.375 97.1556 202.477 97.1556 209.823C97.1556 202.477 92.0588 202.375 92.0588 202.375C92.0588 202.375 96.6788 202.277 97.1175 195.92Z" fill="#84B8FF"/>
<path d="M46.444 145.687C58.5311 152.952 75.8724 146.236 75.8724 146.236C75.8724 146.236 73.6048 127.744 61.5104 120.487C49.4233 113.222 32.0894 119.93 32.0894 119.93C32.0894 119.93 34.3566 138.422 46.444 145.687Z" fill="#FAFAFA"/>
<path d="M100.764 104.21C97.626 104.21 95.0819 106.761 95.0819 109.908C95.0819 113.056 97.626 115.607 100.764 115.607C103.903 115.607 106.447 113.056 106.447 109.908C106.447 106.761 103.903 104.21 100.764 104.21Z" fill="#2C5FFF"/>
<path d="M74.2637 104.541C74.7095 106.209 73.7222 107.924 72.0586 108.371C70.395 108.818 68.685 107.828 68.2393 106.16C67.7935 104.491 68.7808 102.777 70.4444 102.329C72.108 101.882 73.818 102.873 74.2637 104.541Z" fill="#84B8FF"/>
<path d="M247.691 103.324C246.471 103.324 245.481 102.332 245.481 101.108C245.481 99.8837 246.471 98.8914 247.691 98.8914C248.912 98.8914 249.901 99.8837 249.901 101.108C249.901 102.332 248.912 103.324 247.691 103.324Z" fill="#2C5FFF"/>
<path d="M291.011 76.1503C288.221 76.1503 285.959 78.4183 285.959 81.216C285.959 84.0137 288.221 86.2817 291.011 86.2817C293.8 86.2817 296.062 84.0137 296.062 81.216C296.062 78.4183 293.8 76.1503 291.011 76.1503Z" fill="#2C5FFF"/>
<path d="M62.6947 81.1624C60.0793 81.1624 57.9592 79.0362 57.9592 76.4133C57.9592 73.7905 60.0793 71.6643 62.6947 71.6643C65.31 71.6643 67.4302 73.7905 67.4302 76.4133C67.4302 79.0362 65.31 81.1624 62.6947 81.1624Z" fill="#2C5FFF"/>
<path d="M260.955 69.3121C259.037 69.3121 257.483 67.7528 257.483 65.8294C257.483 63.9059 259.037 62.3467 260.955 62.3467C262.873 62.3467 264.428 63.9059 264.428 65.8294C264.428 67.7528 262.873 69.3121 260.955 69.3121Z" fill="#84B8FF"/>
<path d="M109.309 68.3807C107.583 68.3807 106.185 66.9782 106.185 65.2482C106.185 63.5182 107.583 62.1157 109.309 62.1157C111.034 62.1157 112.432 63.5182 112.432 65.2482C112.432 66.9782 111.034 68.3807 109.309 68.3807Z" fill="#84B8FF"/>
<path d="M264.449 50.0386H88.1251C87.2244 50.0386 86.4941 50.7709 86.4941 51.6742V182.696C86.4941 183.6 87.2244 184.332 88.1251 184.332H264.449C265.35 184.332 266.08 183.6 266.08 182.696V51.6742C266.08 50.7709 265.35 50.0386 264.449 50.0386Z" fill="white" stroke="#84B8FF" stroke-width="2.16"/>
<path d="M157.834 96.7079V106.065M195.159 96.7079V106.065M209.082 136.333C209.082 136.333 196.854 146.576 176.462 146.576C156.07 146.576 143.843 136.333 143.843 136.333" stroke="#2C5FFF" stroke-width="10" stroke-linecap="round" stroke-linejoin="round"/>
<path d="M264.449 50.0386H88.1251C87.2244 50.0386 86.4941 50.7709 86.4941 51.6742V64.0185C86.4941 64.9219 87.2244 65.6542 88.1251 65.6542H264.449C265.35 65.6542 266.08 64.9219 266.08 64.0185V51.6742C266.08 50.7709 265.35 50.0386 264.449 50.0386Z" fill="white" stroke="#84B8FF" stroke-width="2.16"/>
<path d="M114.003 55.2435H114.003C112.569 55.2435 111.407 56.4086 111.407 57.8459V57.8463C111.407 59.2836 112.569 60.4488 114.003 60.4488H114.003C115.436 60.4488 116.598 59.2836 116.598 57.8463V57.8459C116.598 56.4086 115.436 55.2435 114.003 55.2435Z" fill="white" stroke="#84B8FF" stroke-width="2.26476"/>
<path d="M104.661 55.2435H104.66C103.227 55.2435 102.065 56.4086 102.065 57.8459V57.8463C102.065 59.2836 103.227 60.4488 104.66 60.4488H104.661C106.094 60.4488 107.256 59.2836 107.256 57.8463V57.8459C107.256 56.4086 106.094 55.2435 104.661 55.2435Z" fill="white" stroke="#84B8FF" stroke-width="2.26476"/>
<path d="M95.3181 55.2435H95.3177C93.8845 55.2435 92.7227 56.4086 92.7227 57.8459V57.8463C92.7227 59.2836 93.8845 60.4488 95.3177 60.4488H95.3181C96.7513 60.4488 97.9132 59.2836 97.9132 57.8463V57.8459C97.9132 56.4086 96.7513 55.2435 95.3181 55.2435Z" fill="white" stroke="#84B8FF" stroke-width="2.26476"/>
<path d="M150.437 43.1296C148.146 43.1296 146.289 41.2669 146.289 38.9691C146.289 36.6713 148.146 34.8086 150.437 34.8086C152.729 34.8086 154.586 36.6713 154.586 38.9691C154.586 41.2669 152.729 43.1296 150.437 43.1296Z" fill="#84B8FF"/>
<path d="M228.813 37.0928C229.741 40.565 227.686 44.134 224.224 45.0643C220.762 45.9947 217.203 43.9342 216.275 40.462C215.347 36.9898 217.402 33.4208 220.864 32.4905C224.327 31.5601 227.885 33.6206 228.813 37.0928Z" fill="#84B8FF"/>
</g>
<defs>
<clipPath id="clip0_279_1883">
<rect width="350" height="234" fill="white" transform="translate(0.5)"/>
</clipPath>
</defs>
</svg>
