<svg width="68" height="37" viewBox="0 0 68 37" fill="none" xmlns="http://www.w3.org/2000/svg">
<g clip-path="url(#clip0_222_11767)">
<rect width="68" height="37" fill="none"/>
<path d="M1.60123 27.652C1.00723 27.652 0.618568 27.597 0.435234 27.487C0.244568 27.3843 0.149234 27.333 0.149234 27.333L0.138234 25.188L1.01823 25.1C1.4729 25.0413 1.78823 24.9167 1.96423 24.726C2.14023 24.5353 2.22823 24.2567 2.22823 23.89V12.626H5.42923V23.923C5.42923 25.1623 5.12857 26.0937 4.52723 26.717C3.9259 27.3403 2.95057 27.652 1.60123 27.652ZM2.18423 10.998V8.105H5.46223V10.998H2.18423ZM13.5801 24.22C12.8615 24.22 12.2088 24.0843 11.6221 23.813C11.0428 23.5417 10.5845 23.1493 10.2471 22.636C9.90979 22.1153 9.74113 21.4847 9.74113 20.744C9.74113 19.4973 10.2068 18.5513 11.1381 17.906C12.0695 17.2533 13.5398 16.916 15.5491 16.894L16.9791 16.872V16.19C16.9791 15.6693 16.8251 15.2697 16.5171 14.991C16.2165 14.705 15.7435 14.5657 15.0981 14.573C14.6361 14.5803 14.1925 14.6903 13.7671 14.903C13.3491 15.1157 13.0595 15.486 12.8981 16.014H10.2251C10.2691 15.1927 10.5075 14.518 10.9401 13.99C11.3801 13.4547 11.9705 13.0587 12.7111 12.802C13.4518 12.538 14.2988 12.406 15.2521 12.406C16.4108 12.406 17.3421 12.5527 18.0461 12.846C18.7501 13.132 19.2598 13.5463 19.5751 14.089C19.8978 14.6243 20.0591 15.2623 20.0591 16.003V24H17.3751L17.1111 22.042C16.7225 22.8633 16.2348 23.4317 15.6481 23.747C15.0688 24.0623 14.3795 24.22 13.5801 24.22ZM14.6691 22.108C14.9551 22.108 15.2338 22.0567 15.5051 21.954C15.7838 21.844 16.0331 21.701 16.2531 21.525C16.4731 21.3417 16.6455 21.1363 16.7701 20.909C16.9021 20.6817 16.9718 20.447 16.9791 20.205V18.522L15.8241 18.544C15.2888 18.5513 14.7901 18.6173 14.3281 18.742C13.8661 18.8593 13.4921 19.0537 13.2061 19.325C12.9275 19.5963 12.7881 19.963 12.7881 20.425C12.7881 20.953 12.9678 21.3673 13.3271 21.668C13.6938 21.9613 14.1411 22.108 14.6691 22.108ZM24.6641 24V12.626H27.7551V15.321C27.9384 14.7417 28.1951 14.2357 28.5251 13.803C28.8624 13.363 29.2694 13.022 29.7461 12.78C30.2227 12.5307 30.7617 12.406 31.3631 12.406C31.4657 12.406 31.5611 12.4133 31.6491 12.428C31.7444 12.4353 31.8141 12.45 31.8581 12.472V15.53C31.7921 15.5007 31.7114 15.4823 31.6161 15.475C31.5281 15.4677 31.4474 15.4603 31.3741 15.453C30.7434 15.4017 30.2044 15.42 29.7571 15.508C29.3097 15.596 28.9467 15.7463 28.6681 15.959C28.3894 16.1717 28.1877 16.432 28.0631 16.74C27.9384 17.048 27.8761 17.3927 27.8761 17.774V24H24.6641ZM39.1568 24L34.8888 12.626H37.7928L40.2788 19.875H40.3668L42.8198 12.626H45.7568L41.4888 24H39.1568ZM49.451 24V12.626H52.52V24H49.451ZM49.418 10.998V8.105H52.542V10.998H49.418ZM61.8592 24.22C61.0672 24.22 60.3045 24.0917 59.5712 23.835C58.8452 23.571 58.2255 23.1603 57.7122 22.603C57.2062 22.0383 56.8872 21.3087 56.7552 20.414H59.5272C59.6299 20.8173 59.8059 21.1363 60.0552 21.371C60.3119 21.6057 60.6015 21.7743 60.9242 21.877C61.2469 21.9723 61.5549 22.02 61.8482 22.02C62.4642 22.02 62.9592 21.9247 63.3332 21.734C63.7145 21.536 63.9052 21.2353 63.9052 20.832C63.9052 20.524 63.7915 20.2783 63.5642 20.095C63.3442 19.9117 62.9775 19.7723 62.4642 19.677L60.4622 19.259C59.4575 19.0463 58.6472 18.687 58.0312 18.181C57.4225 17.6677 57.1145 16.9417 57.1072 16.003C57.0999 15.321 57.2759 14.7087 57.6352 14.166C58.0019 13.6233 58.5409 13.1943 59.2522 12.879C59.9709 12.5637 60.8472 12.406 61.8812 12.406C63.2819 12.406 64.4002 12.714 65.2362 13.33C66.0795 13.946 66.5085 14.815 66.5232 15.937H63.8392C63.7585 15.497 63.5385 15.1597 63.1792 14.925C62.8272 14.683 62.3799 14.562 61.8372 14.562C61.2872 14.562 60.8325 14.661 60.4732 14.859C60.1139 15.057 59.9342 15.3577 59.9342 15.761C59.9342 16.0617 60.0809 16.3 60.3742 16.476C60.6675 16.6447 61.1222 16.7913 61.7382 16.916L63.5862 17.334C64.2242 17.488 64.7412 17.7007 65.1372 17.972C65.5405 18.236 65.8522 18.5257 66.0722 18.841C66.2922 19.1563 66.4425 19.4753 66.5232 19.798C66.6112 20.1133 66.6552 20.3993 66.6552 20.656C66.6552 21.4113 66.4535 22.0567 66.0502 22.592C65.6469 23.12 65.0859 23.5233 64.3672 23.802C63.6485 24.0807 62.8125 24.22 61.8592 24.22Z" fill="#0E2AF5"/>
<path d="M17.14 30.4409C18.6467 31.1675 20.1033 31.7209 21.51 32.1009C22.9233 32.4809 24.3867 32.6709 25.9 32.6709C27.4867 32.6709 29.0433 32.4609 30.57 32.0409C32.1033 31.6209 33.52 31.0642 34.82 30.3709L34.82 32.4309C33.58 33.2842 32.2 33.9709 30.68 34.4909C29.1667 35.0175 27.58 35.2809 25.92 35.2809C24.78 35.2809 23.72 35.1642 22.74 34.9309C21.76 34.6975 20.8167 34.3709 19.91 33.9509C18.9967 33.5375 18.0733 33.0509 17.14 32.4909L17.14 30.4409Z" fill="#0E2AF5"/>
</g>
<defs>
<clipPath id="clip0_222_11767">
<rect width="68" height="37" fill="white"/>
</clipPath>
</defs>
</svg>
