<?xml version="1.0" standalone="no"?>
<!DOCTYPE svg PUBLIC "-//W3C//DTD SVG 20010904//EN"
 "http://www.w3.org/TR/2001/REC-SVG-20010904/DTD/svg10.dtd">
<svg version="1.0" xmlns="http://www.w3.org/2000/svg"
 width="169.000000pt" height="135.000000pt" viewBox="0 0 169.000000 135.000000"
 preserveAspectRatio="xMidYMid meet">

<g transform="translate(0.000000,135.000000) scale(0.100000,-0.100000)"
fill="#0E2AF5" stroke="none">
<path d="M638 1082 c-107 -39 -182 -120 -214 -231 -13 -41 -15 -86 -12 -195 4
-131 6 -145 33 -199 35 -70 97 -130 173 -165 54 -26 65 -27 212 -27 150 0 157
1 217 29 65 30 158 116 150 139 -2 7 -17 13 -34 15 -24 2 -40 -5 -69 -32 -69
-63 -94 -71 -250 -74 -128 -3 -147 -1 -193 18 -56 25 -124 92 -149 148 -12 28
-16 69 -16 172 0 120 2 141 23 188 30 67 97 127 164 147 67 20 247 20 314 0
29 -9 69 -32 96 -55 35 -31 53 -40 81 -40 26 0 36 4 36 15 0 25 -90 108 -145
135 -46 23 -63 25 -210 27 -132 2 -168 0 -207 -15z"/>
<path d="M680 780 l0 -60 45 0 45 0 0 60 0 60 -45 0 -45 0 0 -60z"/>
<path d="M880 780 l0 -60 45 0 45 0 0 60 0 60 -45 0 -45 0 0 -60z"/>
<path d="M684 616 c-3 -8 -4 -25 -2 -38 3 -23 4 -23 148 -23 l145 0 0 35 0 35
-143 3 c-117 2 -143 0 -148 -12z"/>
</g>
</svg>
